<svg width="50" height="50" viewBox="0 0 50 50" fill="none" xmlns="http://www.w3.org/2000/svg">
<path fill-rule="evenodd" clip-rule="evenodd" d="M10.4168 2.08325C8.20669 2.08325 6.08708 2.96123 4.52427 4.52403C2.96147 6.08683 2.0835 8.20645 2.0835 10.4166V39.5833C2.0835 41.7934 2.96147 43.913 4.52427 45.4758C6.08708 47.0386 8.20669 47.9166 10.4168 47.9166H39.5835C41.7936 47.9166 43.9132 47.0386 45.476 45.4758C47.0389 43.913 47.9168 41.7934 47.9168 39.5833V10.4166C47.9168 8.20645 47.0389 6.08683 45.476 4.52403C43.9132 2.96123 41.7936 2.08325 39.5835 2.08325H10.4168ZM25.7085 9.37492H30.6814C30.6814 12.7083 33.4981 16.4791 37.7856 16.4791V21.4499C34.8335 21.2458 32.3106 20.7624 30.6814 19.3187V32.102C30.6814 35.6541 27.8731 40.6249 21.4502 40.6249C13.6043 40.6249 12.2168 33.5208 12.2168 31.3916C12.2168 29.2624 13.4668 22.1583 22.1585 22.1583V27.1312C19.8856 26.6499 17.1877 28.5499 17.1877 31.3916C17.1877 34.9437 19.3189 35.6541 21.4502 35.6541C23.5814 35.6541 25.7106 33.5228 25.7106 31.3916L25.7085 9.37492Z" fill="white"/>
</svg>
