<svg width="62" height="85" viewBox="0 0 62 85" fill="none" xmlns="http://www.w3.org/2000/svg">
<path d="M28.6448 46.9408C33.3193 47.4792 37.7064 46.0513 41.0566 42.9021C44.4584 39.7046 45.9889 36.1917 45.9889 31.5791C45.9889 26.9087 44.4431 23.4111 40.9396 20.1508C39.3913 18.7094 37.3554 17.5265 35.1364 16.7778C33.3219 16.1648 29.3002 16.0121 27.1431 16.4743C24.7409 16.9881 21.8835 18.4796 20.0749 20.1618C16.6917 23.3093 15.0713 27.0088 15.0713 31.5791C15.0713 34.3187 15.4715 36.0349 16.6951 38.5371C17.5854 40.3575 17.9195 40.8112 19.5831 42.4655C21.0313 43.9061 21.8258 44.5217 23.0375 45.144C25.0343 46.1683 26.7734 46.7245 28.6448 46.9408ZM29.5232 84.4306C29.1942 84.2305 27.7197 82.7975 26.246 81.2458C14.9577 69.358 7.07629 57.795 2.79854 46.8399C1.51141 43.544 1.03488 41.8795 0.530366 38.9288C-1.01539 29.8815 0.835616 21.0428 5.8485 13.5252C7.75632 10.6635 11.6279 6.78426 14.3913 4.96293C24.4739 -1.6805 36.6237 -1.65252 46.7529 5.0367C49.3814 6.77324 53.2912 10.7194 55.1523 13.5159C58.5593 18.6364 60.3755 23.8918 60.9267 30.2326C61.3769 35.4065 60.6019 40.4584 58.4999 46.0835C54.4079 57.0233 46.9699 67.9428 34.1596 81.8181C31.2996 84.9156 30.7925 85.2022 29.5232 84.4306Z" fill="#EBE7D9"/>
</svg>
